<?xml version="1.0" encoding="iso-8859-1"?>
<!-- Generator: Adobe Illustrator 18.1.1, SVG Export Plug-In . SVG Version: 6.00 Build 0)  -->
<svg version="1.1" id="Capa_1" xmlns="http://www.w3.org/2000/svg" xmlns:xlink="http://www.w3.org/1999/xlink" x="0px" y="0px"
	 viewBox="0 0 56.765 56.765" style="enable-background:new 0 0 56.765 56.765;" xml:space="preserve">
<g>
	<g>
		<circle style="fill:#010002;" cx="30.402" cy="5.66" r="5.66"/>
		<path style="fill:#010002;" d="M48.262,1.682c-0.935-0.936-2.451-0.936-3.388,0L33.523,13.035
			c-0.869-0.515-1.879-0.815-2.961-0.815c-1.11,0-2.144,0.316-3.026,0.855h-17.34c-1.323,0-2.396,1.073-2.396,2.396
			c0,1.324,1.072,2.396,2.396,2.396h14.555c-0.001,0.058-0.008,0.114-0.008,0.171v13.689c0,0.295,0.029,0.584,0.071,0.865
			c-0.042,0.18-0.071,0.362-0.071,0.555v21.222c0,1.324,1.073,2.396,2.396,2.396c1.324,0,2.396-1.069,2.396-2.396V37.451
			c0.334,0.06,0.676,0.096,1.027,0.096c0.352,0,0.692-0.036,1.026-0.096v16.918c0,1.324,1.073,2.396,2.396,2.396
			c1.323,0,2.396-1.069,2.396-2.396V33.147c0-0.191-0.028-0.375-0.07-0.555c0.041-0.283,0.07-0.57,0.07-0.865V18.038
			c0-0.34-0.034-0.67-0.092-0.994L48.262,5.07C49.199,4.134,49.199,2.618,48.262,1.682z"/>
	</g>
</g>
<g>
</g>
<g>
</g>
<g>
</g>
<g>
</g>
<g>
</g>
<g>
</g>
<g>
</g>
<g>
</g>
<g>
</g>
<g>
</g>
<g>
</g>
<g>
</g>
<g>
</g>
<g>
</g>
<g>
</g>
</svg>
